<svg xmlns="http://www.w3.org/2000/svg" viewBox="-486 1585 22 20.534"><path class="a" d="M21.363,20.534H.637A.638.638,0,0,1,0,19.9V18.24A.638.638,0,0,1,.637,17.6h.811V6.841A.637.637,0,0,1,2.084,6.2h1.3V2.862H9.027V6.2h3.822V4.444H11.015A1.13,1.13,0,0,1,9.887,3.315V1.129A1.13,1.13,0,0,1,11.015,0H17.94a1.13,1.13,0,0,1,1.128,1.129V3.315A1.13,1.13,0,0,1,17.94,4.444H16.107V6.2h3.809a.638.638,0,0,1,.637.637V17.6h.811A.638.638,0,0,1,22,18.24V19.9A.638.638,0,0,1,21.363,20.534Zm-4.326-6.345a1.055,1.055,0,1,0,1.054,1.055A1.056,1.056,0,0,0,17.037,14.189Zm-3.017,0a1.055,1.055,0,1,0,1.056,1.055A1.056,1.056,0,0,0,14.02,14.189Zm-3.014,0a1.055,1.055,0,1,0,1.055,1.055A1.057,1.057,0,0,0,11.006,14.189Zm6.031-3.016a1.056,1.056,0,1,0,1.054,1.056A1.057,1.057,0,0,0,17.037,11.174Zm-3.017,0a1.056,1.056,0,1,0,1.056,1.056A1.056,1.056,0,0,0,14.02,11.174Zm-3.014,0a1.056,1.056,0,1,0,1.055,1.056A1.057,1.057,0,0,0,11.006,11.174ZM17.037,8.16a1.055,1.055,0,1,0,1.054,1.054A1.056,1.056,0,0,0,17.037,8.16Zm-3.017,0a1.055,1.055,0,1,0,1.056,1.054A1.056,1.056,0,0,0,14.02,8.16Zm-3.014,0a1.055,1.055,0,1,0,1.055,1.054A1.056,1.056,0,0,0,11.006,8.16ZM4.514,3.99V8.5H7.9V3.99Z" transform="translate(-486 1585)"/></svg>