<svg xmlns="http://www.w3.org/2000/svg" viewBox="-341.958 1585.105 22.926 19.778" >
  <path class="a" d="M361.237-1563.222H347.69a2.078,2.078,0,0,1-2-1.521l-2.647-9.66a.9.9,0,0,1-.041-.282,1.043,1.043,0,0,1,1.042-1.042h4.991l4.565-6.826a1.022,1.022,0,0,1,.865-.448,1.035,1.035,0,0,1,.865.437l4.564,6.836h4.991a1.043,1.043,0,0,1,1.042,1.042l-.031.282-2.647,9.66A2.1,2.1,0,0,1,361.237-1563.222Zm-1.625-10.42a1.072,1.072,0,0,0-1.071,1.071,1.072,1.072,0,0,0,1.071,1.071,1.072,1.072,0,0,0,1.071-1.071A1.072,1.072,0,0,0,359.611-1573.642Zm-10.33,0a1.072,1.072,0,0,0-1.071,1.071,1.072,1.072,0,0,0,1.071,1.071,1.072,1.072,0,0,0,1.071-1.071A1.072,1.072,0,0,0,349.281-1573.642Zm5.182-6.67-3.127,4.586h6.252l-3.126-4.586Z" transform="translate(-684.958 3168.105)"/>
</svg>
