<svg xmlns="http://www.w3.org/2000/svg" viewBox="-583 1584 24.702 24.702" ><path class="a" d="M10.841,16.33C9.325,14.815,9.7,9.7,9.7,9.7s5.11-.379,6.627,1.137a3.881,3.881,0,0,1-5.489,5.489Zm-9.7,0a3.882,3.882,0,0,1,0-5.489C2.652,9.325,7.763,9.7,7.763,9.7s.379,5.111-1.137,6.627a3.882,3.882,0,0,1-5.489,0ZM9.7,7.763s-.379-5.111,1.137-6.627A3.881,3.881,0,0,1,16.33,6.626c-1.01,1.011-3.619,1.179-5.245,1.179C10.272,7.805,9.7,7.763,9.7,7.763ZM1.137,6.626A3.881,3.881,0,0,1,6.626,1.137C8.142,2.652,7.763,7.763,7.763,7.763s-.568.042-1.381.042C4.755,7.805,2.147,7.637,1.137,6.626Z" transform="translate(-570.649 1584) rotate(45)"/></svg>